<?xml version="1.0" standalone="no"?>
<!DOCTYPE svg PUBLIC "-//W3C//DTD SVG 20010904//EN"
 "http://www.w3.org/TR/2001/REC-SVG-20010904/DTD/svg10.dtd">
<svg version="1.0" xmlns="http://www.w3.org/2000/svg"
 width="960.000000pt" height="960.000000pt" viewBox="0 0 960.000000 960.000000"
 preserveAspectRatio="xMidYMid meet">

<g transform="translate(0.000000,960.000000) scale(0.100000,-0.100000)"
fill="#000000" stroke="none">
<path d="M2009 9183 c-4 -33 7 -100 27 -172 69 -235 200 -368 395 -401 l69
-12 0 -2083 0 -2083 -46 -11 c-158 -40 -366 -210 -535 -436 -282 -378 -308
-743 -70 -968 110 -103 264 -170 471 -205 l105 -17 -3 -40 c-5 -63 7 -104 44
-144 l34 -38 0 -684 0 -684 -75 -12 c-104 -17 -178 -55 -253 -129 -89 -89
-144 -212 -160 -358 l-7 -61 -50 -5 -50 -5 -3 -100 c-2 -55 0 -110 3 -123 l5
-22 2890 0 2890 0 5 23 c3 12 5 67 3 122 l-3 100 -49 5 -49 5 -17 85 c-50 247
-178 406 -365 456 -27 8 -65 14 -82 14 l-33 0 0 830 c0 457 3 830 8 830 41 0
214 34 277 54 330 104 474 400 371 758 -89 306 -361 672 -576 775 l-79 38 0
2057 -1 2057 38 6 c135 22 215 59 292 135 87 87 152 244 161 390 l4 55 -2792
3 c-1536 1 -2793 -1 -2794 -5z m4015 -6159 l-6 -941 -202 -6 c-230 -7 -322
-19 -589 -81 -277 -65 -312 -69 -461 -63 -107 5 -166 14 -321 51 -104 24 -228
52 -275 61 -107 21 -386 30 -505 17 -49 -6 -92 -9 -93 -7 -2 2 12 21 31 42
l36 38 213 -1 c254 -1 309 -8 583 -77 l210 -52 190 1 c201 0 204 1 489 68 163
39 265 51 487 61 l146 7 7 66 c3 37 6 720 7 1517 0 798 5 1673 11 1945 11 560
12 616 3 1189 l-7 415 24 50 23 49 3 -1704 c2 -937 0 -2127 -4 -2645z m-949
4262 c72 -14 186 -41 255 -60 153 -42 216 -53 345 -62 102 -7 125 -14 125 -42
0 -13 -14 -14 -101 -8 -133 8 -230 26 -479 86 -363 88 -489 89 -815 5 -169
-44 -351 -75 -527 -90 -77 -7 -78 -8 -78 -35 0 -20 -10 -34 -37 -54 -58 -41
-55 -7 5 62 55 64 37 58 271 92 80 12 234 44 343 71 108 27 223 54 255 59 97
15 295 4 438 -24z m450 -221 c118 -31 216 -106 284 -219 l34 -57 -29 -30 c-49
-51 -177 -108 -284 -126 -80 -14 -115 -14 -220 -5 -69 6 -152 18 -185 27 -61
16 -163 62 -200 90 -19 15 -19 16 0 53 11 20 52 69 90 107 142 143 338 205
510 160z m-1273 -31 c121 -36 245 -128 293 -217 l20 -37 -30 -25 c-50 -41
-205 -113 -290 -136 -110 -29 -287 -36 -383 -15 -82 17 -169 54 -219 92 l-33
25 31 59 c60 113 165 208 269 245 105 37 235 40 342 9z m359 -349 c105 -264
102 -613 -11 -1040 -34 -129 -76 -234 -125 -315 l-35 -58 -62 19 c-125 38
-284 49 -408 28 l-65 -10 -43 46 c-135 149 -255 403 -297 627 -23 128 -34 317
-24 436 8 103 41 258 57 274 5 5 29 -12 54 -36 56 -53 150 -100 236 -116 87
-17 289 -7 368 18 99 31 204 92 264 153 30 31 56 55 57 55 1 -1 16 -37 34 -81z
m1267 8 c74 -237 69 -551 -13 -845 -49 -171 -148 -397 -254 -574 l-42 -72 -49
19 c-81 31 -213 44 -311 31 -46 -6 -94 -14 -106 -18 -17 -5 -28 4 -61 53 -93
137 -149 275 -199 487 -89 385 -84 631 18 897 l31 81 45 -51 c33 -38 66 -61
126 -90 116 -55 170 -66 332 -66 121 0 149 3 208 23 87 31 173 88 216 146 19
25 36 46 36 46 1 0 12 -30 23 -67z m-2078 -1361 c0 -47 -2 -51 -36 -71 -19
-12 -37 -21 -40 -21 -2 0 -4 52 -4 115 l0 115 40 -44 c36 -39 40 -49 40 -94z
m80 -24 c0 -12 -6 -9 -26 13 -19 22 -19 22 4 8 12 -8 22 -17 22 -21z m973 -35
c27 -15 64 -46 82 -68 34 -41 85 -134 85 -154 0 -8 -22 -10 -67 -6 -38 2 -176
7 -307 10 -132 3 -242 7 -244 10 -8 8 72 117 114 154 107 94 228 113 337 54z
m-1053 -117 l0 -74 -31 -11 c-18 -6 -36 -11 -41 -11 -5 0 -8 33 -6 73 l3 72
35 12 c19 7 36 12 38 12 1 1 2 -32 2 -73z m-5 -414 c-3 -3 -21 10 -40 28 l-35
34 0 97 0 98 38 30 37 31 3 -156 c1 -86 0 -159 -3 -162z m-22 -104 l27 -19 0
-1155 c0 -635 -4 -1154 -8 -1154 -5 0 -23 20 -40 45 l-32 46 0 1135 c0 905 3
1134 13 1128 6 -4 24 -16 40 -26z m2633 -43 c86 -56 82 -179 -8 -236 -64 -40
-157 -7 -193 67 -56 119 89 242 201 169z m674 -198 c93 -33 144 -68 235 -162
188 -193 341 -470 375 -679 22 -134 6 -240 -52 -348 -84 -158 -280 -243 -585
-255 l-151 -6 -4 -94 c-3 -85 -5 -97 -27 -114 -28 -23 -106 -26 -154 -5 -82
34 -132 147 -109 247 12 50 12 51 -23 92 -39 45 -54 99 -35 122 7 8 29 20 49
26 30 9 47 7 94 -9 40 -13 57 -15 57 -7 0 37 70 145 146 224 88 93 180 162
305 230 l74 41 -47 0 c-66 0 -162 -33 -226 -77 l-55 -38 -55 60 c-68 76 -127
161 -158 232 -70 158 -35 353 84 472 75 75 148 88 262 48z m-4437 -58 c53 -14
111 -70 146 -140 107 -215 41 -433 -192 -632 l-56 -48 -53 42 c-66 53 -140 87
-204 95 -57 8 -58 8 55 -72 102 -72 243 -218 294 -305 21 -35 45 -89 54 -120
l16 -56 31 15 c45 23 120 20 154 -5 22 -17 27 -28 26 -59 -1 -31 -10 -45 -48
-81 -43 -42 -46 -47 -46 -97 0 -139 -83 -236 -200 -236 -42 0 -64 5 -81 19
-23 18 -24 25 -21 119 l2 100 -72 7 c-283 27 -503 122 -597 259 -68 99 -90
258 -56 406 23 97 114 275 199 387 79 105 241 268 319 321 110 76 237 107 330
81z m2765 -245 c60 -30 59 -20 11 -168 -46 -139 -104 -241 -179 -316 -192
-192 -413 -179 -640 37 -49 47 -106 107 -126 134 l-36 49 22 36 c25 40 103
105 162 135 94 48 196 31 264 -43 35 -39 38 -40 51 -22 31 43 100 107 141 131
70 41 111 52 198 53 67 0 89 -4 132 -26z"/>
<path d="M4254 6165 c-59 -40 -89 -193 -81 -410 9 -259 66 -400 154 -383 26 5
61 75 78 155 17 81 20 322 4 409 -16 95 -48 181 -79 214 -31 34 -46 37 -76 15z
m33 -195 c15 -30 17 -141 3 -191 -6 -20 -18 -43 -28 -53 -18 -15 -20 -15 -38
5 -27 30 -28 201 -1 243 22 32 46 31 64 -4z"/>
<path d="M5347 6110 c-111 -131 -127 -589 -25 -697 30 -32 61 -29 92 8 34 40
50 78 70 169 70 308 -22 657 -137 520z m54 -77 c22 -25 15 -140 -11 -201 -31
-72 -47 -83 -72 -52 -17 21 -20 35 -15 91 6 69 26 131 54 161 20 22 27 22 44
1z"/>
</g>
</svg>
